<svg width="136" height="286" viewBox="0 0 136 286" fill="none" xmlns="http://www.w3.org/2000/svg">
<rect x="136" width="3.71853" height="3.71853" rx="1.34409" transform="rotate(90 136 0)" fill="#E7E7E7"/>
<rect x="136" y="14.8745" width="3.71853" height="3.71853" rx="1.34409" transform="rotate(90 136 14.8745)" fill="#E7E7E7"/>
<rect x="136" y="29.7485" width="3.71853" height="3.71853" rx="1.34409" transform="rotate(90 136 29.7485)" fill="#E7E7E7"/>
<rect x="136" y="44.6226" width="3.71853" height="3.71853" rx="1.34409" transform="rotate(90 136 44.6226)" fill="#E7E7E7"/>
<rect x="136" y="59.4966" width="3.71853" height="3.71853" rx="1.34409" transform="rotate(90 136 59.4966)" fill="#E7E7E7"/>
<rect x="136" y="74.3706" width="3.71853" height="3.71853" rx="1.34409" transform="rotate(90 136 74.3706)" fill="#E7E7E7"/>
<rect x="136" y="89.2451" width="3.71853" height="3.71853" rx="1.34409" transform="rotate(90 136 89.2451)" fill="#E7E7E7"/>
<rect x="136" y="104.12" width="3.71853" height="3.71853" rx="1.34409" transform="rotate(90 136 104.12)" fill="#E7E7E7"/>
<rect x="136" y="118.993" width="3.71853" height="3.71853" rx="1.34409" transform="rotate(90 136 118.993)" fill="#E7E7E7"/>
<rect x="136" y="133.867" width="3.71853" height="3.71853" rx="1.34409" transform="rotate(90 136 133.867)" fill="#E7E7E7"/>
<rect x="121.126" width="3.71853" height="3.71853" rx="1.34409" transform="rotate(90 121.126 0)" fill="#E7E7E7"/>
<rect x="121.126" y="14.8745" width="3.71853" height="3.71853" rx="1.34409" transform="rotate(90 121.126 14.8745)" fill="#E7E7E7"/>
<rect x="121.126" y="29.7485" width="3.71853" height="3.71853" rx="1.34409" transform="rotate(90 121.126 29.7485)" fill="#E7E7E7"/>
<rect x="121.126" y="44.6226" width="3.71853" height="3.71853" rx="1.34409" transform="rotate(90 121.126 44.6226)" fill="#E7E7E7"/>
<rect x="121.126" y="59.4966" width="3.71853" height="3.71853" rx="1.34409" transform="rotate(90 121.126 59.4966)" fill="#E7E7E7"/>
<rect x="121.126" y="74.3706" width="3.71853" height="3.71853" rx="1.34409" transform="rotate(90 121.126 74.3706)" fill="#E7E7E7"/>
<rect x="121.126" y="89.2451" width="3.71853" height="3.71853" rx="1.34409" transform="rotate(90 121.126 89.2451)" fill="#E7E7E7"/>
<rect x="121.126" y="104.12" width="3.71853" height="3.71853" rx="1.34409" transform="rotate(90 121.126 104.12)" fill="#E7E7E7"/>
<rect x="121.126" y="118.993" width="3.71853" height="3.71853" rx="1.34409" transform="rotate(90 121.126 118.993)" fill="#E7E7E7"/>
<rect x="121.126" y="133.867" width="3.71853" height="3.71853" rx="1.34409" transform="rotate(90 121.126 133.867)" fill="#E7E7E7"/>
<rect x="106.252" width="3.71853" height="3.71853" rx="1.34409" transform="rotate(90 106.252 0)" fill="#E7E7E7"/>
<rect x="106.252" y="14.8745" width="3.71853" height="3.71853" rx="1.34409" transform="rotate(90 106.252 14.8745)" fill="#E7E7E7"/>
<rect x="106.252" y="29.7485" width="3.71853" height="3.71853" rx="1.34409" transform="rotate(90 106.252 29.7485)" fill="#E7E7E7"/>
<rect x="106.252" y="44.6226" width="3.71853" height="3.71853" rx="1.34409" transform="rotate(90 106.252 44.6226)" fill="#E7E7E7"/>
<rect x="106.252" y="59.4966" width="3.71853" height="3.71853" rx="1.34409" transform="rotate(90 106.252 59.4966)" fill="#E7E7E7"/>
<rect x="106.252" y="74.3706" width="3.71853" height="3.71853" rx="1.34409" transform="rotate(90 106.252 74.3706)" fill="#E7E7E7"/>
<rect x="106.252" y="89.2451" width="3.71853" height="3.71853" rx="1.34409" transform="rotate(90 106.252 89.2451)" fill="#E7E7E7"/>
<rect x="106.252" y="104.12" width="3.71853" height="3.71853" rx="1.34409" transform="rotate(90 106.252 104.12)" fill="#E7E7E7"/>
<rect x="106.252" y="118.993" width="3.71853" height="3.71853" rx="1.34409" transform="rotate(90 106.252 118.993)" fill="#E7E7E7"/>
<rect x="106.252" y="133.867" width="3.71853" height="3.71853" rx="1.34409" transform="rotate(90 106.252 133.867)" fill="#E7E7E7"/>
<rect x="91.3779" width="3.71853" height="3.71853" rx="1.34409" transform="rotate(90 91.3779 0)" fill="#E7E7E7"/>
<rect x="91.3779" y="14.8745" width="3.71853" height="3.71853" rx="1.34409" transform="rotate(90 91.3779 14.8745)" fill="#E7E7E7"/>
<rect x="91.3779" y="29.7485" width="3.71853" height="3.71853" rx="1.34409" transform="rotate(90 91.3779 29.7485)" fill="#E7E7E7"/>
<rect x="91.3779" y="44.6226" width="3.71853" height="3.71853" rx="1.34409" transform="rotate(90 91.3779 44.6226)" fill="#E7E7E7"/>
<rect x="91.3779" y="59.4966" width="3.71853" height="3.71853" rx="1.34409" transform="rotate(90 91.3779 59.4966)" fill="#E7E7E7"/>
<rect x="91.3779" y="74.3706" width="3.71853" height="3.71853" rx="1.34409" transform="rotate(90 91.3779 74.3706)" fill="#E7E7E7"/>
<rect x="91.3779" y="89.2451" width="3.71853" height="3.71853" rx="1.34409" transform="rotate(90 91.3779 89.2451)" fill="#E7E7E7"/>
<rect x="91.3779" y="104.119" width="3.71853" height="3.71853" rx="1.34409" transform="rotate(90 91.3779 104.119)" fill="#E7E7E7"/>
<rect x="91.3779" y="118.993" width="3.71853" height="3.71853" rx="1.34409" transform="rotate(90 91.3779 118.993)" fill="#E7E7E7"/>
<rect x="91.3779" y="133.867" width="3.71853" height="3.71853" rx="1.34409" transform="rotate(90 91.3779 133.867)" fill="#E7E7E7"/>
<rect x="76.5029" width="3.71853" height="3.71853" rx="1.34409" transform="rotate(90 76.5029 0)" fill="#E7E7E7"/>
<rect x="76.5029" y="14.8745" width="3.71853" height="3.71853" rx="1.34409" transform="rotate(90 76.5029 14.8745)" fill="#E7E7E7"/>
<rect x="76.5029" y="29.7485" width="3.71853" height="3.71853" rx="1.34409" transform="rotate(90 76.5029 29.7485)" fill="#E7E7E7"/>
<rect x="76.5029" y="44.6226" width="3.71853" height="3.71853" rx="1.34409" transform="rotate(90 76.5029 44.6226)" fill="#E7E7E7"/>
<rect x="76.5029" y="59.4966" width="3.71853" height="3.71853" rx="1.34409" transform="rotate(90 76.5029 59.4966)" fill="#E7E7E7"/>
<rect x="76.5029" y="74.3706" width="3.71853" height="3.71853" rx="1.34409" transform="rotate(90 76.5029 74.3706)" fill="#E7E7E7"/>
<rect x="76.5029" y="89.2451" width="3.71853" height="3.71853" rx="1.34409" transform="rotate(90 76.5029 89.2451)" fill="#E7E7E7"/>
<rect x="76.5029" y="104.119" width="3.71853" height="3.71853" rx="1.34409" transform="rotate(90 76.5029 104.119)" fill="#E7E7E7"/>
<rect x="76.5029" y="118.993" width="3.71853" height="3.71853" rx="1.34409" transform="rotate(90 76.5029 118.993)" fill="#E7E7E7"/>
<rect x="76.5029" y="133.867" width="3.71853" height="3.71853" rx="1.34409" transform="rotate(90 76.5029 133.867)" fill="#E7E7E7"/>
<rect x="61.6289" width="3.71853" height="3.71853" rx="1.34409" transform="rotate(90 61.6289 0)" fill="#E7E7E7"/>
<rect x="61.6289" y="14.8745" width="3.71853" height="3.71853" rx="1.34409" transform="rotate(90 61.6289 14.8745)" fill="#E7E7E7"/>
<rect x="61.6289" y="29.7485" width="3.71853" height="3.71853" rx="1.34409" transform="rotate(90 61.6289 29.7485)" fill="#E7E7E7"/>
<rect x="61.6289" y="44.6226" width="3.71853" height="3.71853" rx="1.34409" transform="rotate(90 61.6289 44.6226)" fill="#E7E7E7"/>
<rect x="61.6289" y="59.4966" width="3.71853" height="3.71853" rx="1.34409" transform="rotate(90 61.6289 59.4966)" fill="#E7E7E7"/>
<rect x="61.6289" y="74.3706" width="3.71853" height="3.71853" rx="1.34409" transform="rotate(90 61.6289 74.3706)" fill="#E7E7E7"/>
<rect x="61.6289" y="89.2451" width="3.71853" height="3.71853" rx="1.34409" transform="rotate(90 61.6289 89.2451)" fill="#E7E7E7"/>
<rect x="61.6289" y="104.119" width="3.71853" height="3.71853" rx="1.34409" transform="rotate(90 61.6289 104.119)" fill="#E7E7E7"/>
<rect x="61.6289" y="118.993" width="3.71853" height="3.71853" rx="1.34409" transform="rotate(90 61.6289 118.993)" fill="#E7E7E7"/>
<rect x="61.6289" y="133.867" width="3.71853" height="3.71853" rx="1.34409" transform="rotate(90 61.6289 133.867)" fill="#E7E7E7"/>
<rect x="46.7559" width="3.71853" height="3.71853" rx="1.34409" transform="rotate(90 46.7559 0)" fill="#E7E7E7"/>
<rect x="32.4092" width="3.71853" height="3.71853" rx="1.34409" transform="rotate(90 32.4092 0)" fill="#E7E7E7"/>
<rect x="18.0645" width="3.71853" height="3.71853" rx="1.34409" transform="rotate(90 18.0645 0)" fill="#E7E7E7"/>
<rect x="3.71875" width="3.71853" height="3.71853" rx="1.34409" transform="rotate(90 3.71875 0)" fill="#E7E7E7"/>
<rect x="46.7559" y="14.8745" width="3.71853" height="3.71853" rx="1.34409" transform="rotate(90 46.7559 14.8745)" fill="#E7E7E7"/>
<rect x="32.4092" y="14.8745" width="3.71853" height="3.71853" rx="1.34409" transform="rotate(90 32.4092 14.8745)" fill="#E7E7E7"/>
<rect x="18.0645" y="14.8745" width="3.71853" height="3.71853" rx="1.34409" transform="rotate(90 18.0645 14.8745)" fill="#E7E7E7"/>
<rect x="3.71875" y="14.8745" width="3.71853" height="3.71853" rx="1.34409" transform="rotate(90 3.71875 14.8745)" fill="#E7E7E7"/>
<rect x="46.7559" y="29.7485" width="3.71853" height="3.71853" rx="1.34409" transform="rotate(90 46.7559 29.7485)" fill="#E7E7E7"/>
<rect x="32.4092" y="29.7485" width="3.71853" height="3.71853" rx="1.34409" transform="rotate(90 32.4092 29.7485)" fill="#E7E7E7"/>
<rect x="18.0645" y="29.7485" width="3.71853" height="3.71853" rx="1.34409" transform="rotate(90 18.0645 29.7485)" fill="#E7E7E7"/>
<rect x="3.71875" y="29.7485" width="3.71853" height="3.71853" rx="1.34409" transform="rotate(90 3.71875 29.7485)" fill="#E7E7E7"/>
<rect x="46.7559" y="44.6221" width="3.71853" height="3.71853" rx="1.34409" transform="rotate(90 46.7559 44.6221)" fill="#E7E7E7"/>
<rect x="32.4092" y="44.6221" width="3.71853" height="3.71853" rx="1.34409" transform="rotate(90 32.4092 44.6221)" fill="#E7E7E7"/>
<rect x="18.0645" y="44.6221" width="3.71853" height="3.71853" rx="1.34409" transform="rotate(90 18.0645 44.6221)" fill="#E7E7E7"/>
<rect x="3.71875" y="44.6226" width="3.71853" height="3.71853" rx="1.34409" transform="rotate(90 3.71875 44.6226)" fill="#E7E7E7"/>
<rect x="46.7559" y="59.4966" width="3.71853" height="3.71853" rx="1.34409" transform="rotate(90 46.7559 59.4966)" fill="#E7E7E7"/>
<rect x="32.4092" y="59.4966" width="3.71853" height="3.71853" rx="1.34409" transform="rotate(90 32.4092 59.4966)" fill="#E7E7E7"/>
<rect x="18.0645" y="59.4966" width="3.71853" height="3.71853" rx="1.34409" transform="rotate(90 18.0645 59.4966)" fill="#E7E7E7"/>
<rect x="3.71875" y="59.4966" width="3.71853" height="3.71853" rx="1.34409" transform="rotate(90 3.71875 59.4966)" fill="#E7E7E7"/>
<rect x="46.7559" y="74.3711" width="3.71853" height="3.71853" rx="1.34409" transform="rotate(90 46.7559 74.3711)" fill="#E7E7E7"/>
<rect x="32.4092" y="74.3711" width="3.71853" height="3.71853" rx="1.34409" transform="rotate(90 32.4092 74.3711)" fill="#E7E7E7"/>
<rect x="18.0645" y="74.3711" width="3.71853" height="3.71853" rx="1.34409" transform="rotate(90 18.0645 74.3711)" fill="#E7E7E7"/>
<rect x="3.71875" y="74.3706" width="3.71853" height="3.71853" rx="1.34409" transform="rotate(90 3.71875 74.3706)" fill="#E7E7E7"/>
<rect x="46.7559" y="89.2451" width="3.71853" height="3.71853" rx="1.34409" transform="rotate(90 46.7559 89.2451)" fill="#E7E7E7"/>
<rect x="32.4092" y="89.2451" width="3.71853" height="3.71853" rx="1.34409" transform="rotate(90 32.4092 89.2451)" fill="#E7E7E7"/>
<rect x="18.0645" y="89.2451" width="3.71853" height="3.71853" rx="1.34409" transform="rotate(90 18.0645 89.2451)" fill="#E7E7E7"/>
<rect x="3.71875" y="89.2451" width="3.71853" height="3.71853" rx="1.34409" transform="rotate(90 3.71875 89.2451)" fill="#E7E7E7"/>
<rect x="46.7559" y="104.12" width="3.71853" height="3.71853" rx="1.34409" transform="rotate(90 46.7559 104.12)" fill="#E7E7E7"/>
<rect x="32.4092" y="104.12" width="3.71853" height="3.71853" rx="1.34409" transform="rotate(90 32.4092 104.12)" fill="#E7E7E7"/>
<rect x="18.0645" y="104.12" width="3.71853" height="3.71853" rx="1.34409" transform="rotate(90 18.0645 104.12)" fill="#E7E7E7"/>
<rect x="3.71875" y="104.12" width="3.71853" height="3.71853" rx="1.34409" transform="rotate(90 3.71875 104.12)" fill="#E7E7E7"/>
<rect x="46.7559" y="118.993" width="3.71853" height="3.71853" rx="1.34409" transform="rotate(90 46.7559 118.993)" fill="#E7E7E7"/>
<rect x="32.4092" y="118.993" width="3.71853" height="3.71853" rx="1.34409" transform="rotate(90 32.4092 118.993)" fill="#E7E7E7"/>
<rect x="18.0645" y="118.993" width="3.71853" height="3.71853" rx="1.34409" transform="rotate(90 18.0645 118.993)" fill="#E7E7E7"/>
<rect x="3.71875" y="118.993" width="3.71853" height="3.71853" rx="1.34409" transform="rotate(90 3.71875 118.993)" fill="#E7E7E7"/>
<rect x="46.7559" y="133.867" width="3.71853" height="3.71853" rx="1.34409" transform="rotate(90 46.7559 133.867)" fill="#E7E7E7"/>
<rect x="32.4092" y="133.867" width="3.71853" height="3.71853" rx="1.34409" transform="rotate(90 32.4092 133.867)" fill="#E7E7E7"/>
<rect x="18.0645" y="133.867" width="3.71853" height="3.71853" rx="1.34409" transform="rotate(90 18.0645 133.867)" fill="#E7E7E7"/>
<rect x="3.71875" y="133.867" width="3.71853" height="3.71853" rx="1.34409" transform="rotate(90 3.71875 133.867)" fill="#E7E7E7"/>
<rect x="136" y="148.068" width="3.71853" height="3.71853" rx="1.34409" transform="rotate(90 136 148.068)" fill="#E7E7E7"/>
<rect x="136" y="162.943" width="3.71853" height="3.71853" rx="1.34409" transform="rotate(90 136 162.943)" fill="#E7E7E7"/>
<rect x="136" y="177.817" width="3.71853" height="3.71853" rx="1.34409" transform="rotate(90 136 177.817)" fill="#E7E7E7"/>
<rect x="136" y="192.691" width="3.71853" height="3.71853" rx="1.34409" transform="rotate(90 136 192.691)" fill="#E7E7E7"/>
<rect x="136" y="207.565" width="3.71853" height="3.71853" rx="1.34409" transform="rotate(90 136 207.565)" fill="#E7E7E7"/>
<rect x="136" y="222.439" width="3.71853" height="3.71853" rx="1.34409" transform="rotate(90 136 222.439)" fill="#E7E7E7"/>
<rect x="136" y="237.313" width="3.71853" height="3.71853" rx="1.34409" transform="rotate(90 136 237.313)" fill="#E7E7E7"/>
<rect x="136" y="252.188" width="3.71853" height="3.71853" rx="1.34409" transform="rotate(90 136 252.188)" fill="#E7E7E7"/>
<rect x="136" y="267.062" width="3.71853" height="3.71853" rx="1.34409" transform="rotate(90 136 267.062)" fill="#E7E7E7"/>
<rect x="136" y="281.936" width="3.71853" height="3.71853" rx="1.34409" transform="rotate(90 136 281.936)" fill="#E7E7E7"/>
<rect x="121.126" y="148.068" width="3.71853" height="3.71853" rx="1.34409" transform="rotate(90 121.126 148.068)" fill="#E7E7E7"/>
<rect x="121.126" y="162.943" width="3.71853" height="3.71853" rx="1.34409" transform="rotate(90 121.126 162.943)" fill="#E7E7E7"/>
<rect x="121.126" y="177.817" width="3.71853" height="3.71853" rx="1.34409" transform="rotate(90 121.126 177.817)" fill="#E7E7E7"/>
<rect x="121.126" y="192.691" width="3.71853" height="3.71853" rx="1.34409" transform="rotate(90 121.126 192.691)" fill="#E7E7E7"/>
<rect x="121.126" y="207.565" width="3.71853" height="3.71853" rx="1.34409" transform="rotate(90 121.126 207.565)" fill="#E7E7E7"/>
<rect x="121.126" y="222.439" width="3.71853" height="3.71853" rx="1.34409" transform="rotate(90 121.126 222.439)" fill="#E7E7E7"/>
<rect x="121.126" y="237.313" width="3.71853" height="3.71853" rx="1.34409" transform="rotate(90 121.126 237.313)" fill="#E7E7E7"/>
<rect x="121.126" y="252.188" width="3.71853" height="3.71853" rx="1.34409" transform="rotate(90 121.126 252.188)" fill="#E7E7E7"/>
<rect x="121.126" y="267.062" width="3.71853" height="3.71853" rx="1.34409" transform="rotate(90 121.126 267.062)" fill="#E7E7E7"/>
<rect x="121.126" y="281.936" width="3.71853" height="3.71853" rx="1.34409" transform="rotate(90 121.126 281.936)" fill="#E7E7E7"/>
<rect x="106.252" y="148.068" width="3.71853" height="3.71853" rx="1.34409" transform="rotate(90 106.252 148.068)" fill="#E7E7E7"/>
<rect x="106.252" y="162.943" width="3.71853" height="3.71853" rx="1.34409" transform="rotate(90 106.252 162.943)" fill="#E7E7E7"/>
<rect x="106.252" y="177.817" width="3.71853" height="3.71853" rx="1.34409" transform="rotate(90 106.252 177.817)" fill="#E7E7E7"/>
<rect x="106.252" y="192.691" width="3.71853" height="3.71853" rx="1.34409" transform="rotate(90 106.252 192.691)" fill="#E7E7E7"/>
<rect x="106.252" y="207.565" width="3.71853" height="3.71853" rx="1.34409" transform="rotate(90 106.252 207.565)" fill="#E7E7E7"/>
<rect x="106.252" y="222.439" width="3.71853" height="3.71853" rx="1.34409" transform="rotate(90 106.252 222.439)" fill="#E7E7E7"/>
<rect x="106.252" y="237.313" width="3.71853" height="3.71853" rx="1.34409" transform="rotate(90 106.252 237.313)" fill="#E7E7E7"/>
<rect x="106.252" y="252.188" width="3.71853" height="3.71853" rx="1.34409" transform="rotate(90 106.252 252.188)" fill="#E7E7E7"/>
<rect x="106.252" y="267.062" width="3.71853" height="3.71853" rx="1.34409" transform="rotate(90 106.252 267.062)" fill="#E7E7E7"/>
<rect x="106.252" y="281.936" width="3.71853" height="3.71853" rx="1.34409" transform="rotate(90 106.252 281.936)" fill="#E7E7E7"/>
<rect x="91.3779" y="148.068" width="3.71853" height="3.71853" rx="1.34409" transform="rotate(90 91.3779 148.068)" fill="#E7E7E7"/>
<rect x="91.3779" y="162.943" width="3.71853" height="3.71853" rx="1.34409" transform="rotate(90 91.3779 162.943)" fill="#E7E7E7"/>
<rect x="91.3779" y="177.817" width="3.71853" height="3.71853" rx="1.34409" transform="rotate(90 91.3779 177.817)" fill="#E7E7E7"/>
<rect x="91.3779" y="192.691" width="3.71853" height="3.71853" rx="1.34409" transform="rotate(90 91.3779 192.691)" fill="#E7E7E7"/>
<rect x="91.3779" y="207.565" width="3.71853" height="3.71853" rx="1.34409" transform="rotate(90 91.3779 207.565)" fill="#E7E7E7"/>
<rect x="91.3779" y="222.439" width="3.71853" height="3.71853" rx="1.34409" transform="rotate(90 91.3779 222.439)" fill="#E7E7E7"/>
<rect x="91.3779" y="237.313" width="3.71853" height="3.71853" rx="1.34409" transform="rotate(90 91.3779 237.313)" fill="#E7E7E7"/>
<rect x="91.3779" y="252.188" width="3.71853" height="3.71853" rx="1.34409" transform="rotate(90 91.3779 252.188)" fill="#E7E7E7"/>
<rect x="91.3779" y="267.062" width="3.71853" height="3.71853" rx="1.34409" transform="rotate(90 91.3779 267.062)" fill="#E7E7E7"/>
<rect x="91.3779" y="281.936" width="3.71853" height="3.71853" rx="1.34409" transform="rotate(90 91.3779 281.936)" fill="#E7E7E7"/>
<rect x="76.5029" y="148.068" width="3.71853" height="3.71853" rx="1.34409" transform="rotate(90 76.5029 148.068)" fill="#E7E7E7"/>
<rect x="76.5029" y="162.943" width="3.71853" height="3.71853" rx="1.34409" transform="rotate(90 76.5029 162.943)" fill="#E7E7E7"/>
<rect x="76.5029" y="177.817" width="3.71853" height="3.71853" rx="1.34409" transform="rotate(90 76.5029 177.817)" fill="#E7E7E7"/>
<rect x="76.5029" y="192.691" width="3.71853" height="3.71853" rx="1.34409" transform="rotate(90 76.5029 192.691)" fill="#E7E7E7"/>
<rect x="76.5029" y="207.565" width="3.71853" height="3.71853" rx="1.34409" transform="rotate(90 76.5029 207.565)" fill="#E7E7E7"/>
<rect x="76.5029" y="222.439" width="3.71853" height="3.71853" rx="1.34409" transform="rotate(90 76.5029 222.439)" fill="#E7E7E7"/>
<rect x="76.5029" y="237.313" width="3.71853" height="3.71853" rx="1.34409" transform="rotate(90 76.5029 237.313)" fill="#E7E7E7"/>
<rect x="76.5029" y="252.188" width="3.71853" height="3.71853" rx="1.34409" transform="rotate(90 76.5029 252.188)" fill="#E7E7E7"/>
<rect x="76.5029" y="267.062" width="3.71853" height="3.71853" rx="1.34409" transform="rotate(90 76.5029 267.062)" fill="#E7E7E7"/>
<rect x="76.5029" y="281.936" width="3.71853" height="3.71853" rx="1.34409" transform="rotate(90 76.5029 281.936)" fill="#E7E7E7"/>
<rect x="61.6289" y="148.069" width="3.71853" height="3.71853" rx="1.34409" transform="rotate(90 61.6289 148.069)" fill="#E7E7E7"/>
<rect x="61.6289" y="162.943" width="3.71853" height="3.71853" rx="1.34409" transform="rotate(90 61.6289 162.943)" fill="#E7E7E7"/>
<rect x="61.6289" y="177.817" width="3.71853" height="3.71853" rx="1.34409" transform="rotate(90 61.6289 177.817)" fill="#E7E7E7"/>
<rect x="61.6289" y="192.691" width="3.71853" height="3.71853" rx="1.34409" transform="rotate(90 61.6289 192.691)" fill="#E7E7E7"/>
<rect x="61.6289" y="207.565" width="3.71853" height="3.71853" rx="1.34409" transform="rotate(90 61.6289 207.565)" fill="#E7E7E7"/>
<rect x="61.6289" y="222.439" width="3.71853" height="3.71853" rx="1.34409" transform="rotate(90 61.6289 222.439)" fill="#E7E7E7"/>
<rect x="61.6289" y="237.313" width="3.71853" height="3.71853" rx="1.34409" transform="rotate(90 61.6289 237.313)" fill="#E7E7E7"/>
<rect x="61.6289" y="252.188" width="3.71853" height="3.71853" rx="1.34409" transform="rotate(90 61.6289 252.188)" fill="#E7E7E7"/>
<rect x="61.6289" y="267.062" width="3.71853" height="3.71853" rx="1.34409" transform="rotate(90 61.6289 267.062)" fill="#E7E7E7"/>
<rect x="61.6289" y="281.936" width="3.71853" height="3.71853" rx="1.34409" transform="rotate(90 61.6289 281.936)" fill="#E7E7E7"/>
<rect x="46.7559" y="148.069" width="3.71853" height="3.71853" rx="1.34409" transform="rotate(90 46.7559 148.069)" fill="#E7E7E7"/>
<rect x="32.4092" y="148.068" width="3.71853" height="3.71853" rx="1.34409" transform="rotate(90 32.4092 148.068)" fill="#E7E7E7"/>
<rect x="18.0645" y="148.069" width="3.71853" height="3.71853" rx="1.34409" transform="rotate(90 18.0645 148.069)" fill="#E7E7E7"/>
<rect x="3.71875" y="148.068" width="3.71853" height="3.71853" rx="1.34409" transform="rotate(90 3.71875 148.068)" fill="#E7E7E7"/>
<rect x="46.7559" y="162.943" width="3.71853" height="3.71853" rx="1.34409" transform="rotate(90 46.7559 162.943)" fill="#E7E7E7"/>
<rect x="32.4092" y="162.943" width="3.71853" height="3.71853" rx="1.34409" transform="rotate(90 32.4092 162.943)" fill="#E7E7E7"/>
<rect x="18.0645" y="162.943" width="3.71853" height="3.71853" rx="1.34409" transform="rotate(90 18.0645 162.943)" fill="#E7E7E7"/>
<rect x="3.71875" y="162.943" width="3.71853" height="3.71853" rx="1.34409" transform="rotate(90 3.71875 162.943)" fill="#E7E7E7"/>
<rect x="46.7559" y="177.817" width="3.71853" height="3.71853" rx="1.34409" transform="rotate(90 46.7559 177.817)" fill="#E7E7E7"/>
<rect x="32.4092" y="177.817" width="3.71853" height="3.71853" rx="1.34409" transform="rotate(90 32.4092 177.817)" fill="#E7E7E7"/>
<rect x="18.0645" y="177.817" width="3.71853" height="3.71853" rx="1.34409" transform="rotate(90 18.0645 177.817)" fill="#E7E7E7"/>
<rect x="3.71875" y="177.817" width="3.71853" height="3.71853" rx="1.34409" transform="rotate(90 3.71875 177.817)" fill="#E7E7E7"/>
<rect x="46.7559" y="192.691" width="3.71853" height="3.71853" rx="1.34409" transform="rotate(90 46.7559 192.691)" fill="#E7E7E7"/>
<rect x="32.4092" y="192.691" width="3.71853" height="3.71853" rx="1.34409" transform="rotate(90 32.4092 192.691)" fill="#E7E7E7"/>
<rect x="18.0645" y="192.691" width="3.71853" height="3.71853" rx="1.34409" transform="rotate(90 18.0645 192.691)" fill="#E7E7E7"/>
<rect x="3.71875" y="192.691" width="3.71853" height="3.71853" rx="1.34409" transform="rotate(90 3.71875 192.691)" fill="#E7E7E7"/>
<rect x="46.7559" y="207.565" width="3.71853" height="3.71853" rx="1.34409" transform="rotate(90 46.7559 207.565)" fill="#E7E7E7"/>
<rect x="32.4092" y="207.565" width="3.71853" height="3.71853" rx="1.34409" transform="rotate(90 32.4092 207.565)" fill="#E7E7E7"/>
<rect x="18.0645" y="207.565" width="3.71853" height="3.71853" rx="1.34409" transform="rotate(90 18.0645 207.565)" fill="#E7E7E7"/>
<rect x="3.71875" y="207.565" width="3.71853" height="3.71853" rx="1.34409" transform="rotate(90 3.71875 207.565)" fill="#E7E7E7"/>
<rect x="46.7559" y="222.439" width="3.71853" height="3.71853" rx="1.34409" transform="rotate(90 46.7559 222.439)" fill="#E7E7E7"/>
<rect x="32.4092" y="222.439" width="3.71853" height="3.71853" rx="1.34409" transform="rotate(90 32.4092 222.439)" fill="#E7E7E7"/>
<rect x="18.0645" y="222.439" width="3.71853" height="3.71853" rx="1.34409" transform="rotate(90 18.0645 222.439)" fill="#E7E7E7"/>
<rect x="3.71875" y="222.439" width="3.71853" height="3.71853" rx="1.34409" transform="rotate(90 3.71875 222.439)" fill="#E7E7E7"/>
<rect x="46.7559" y="237.313" width="3.71853" height="3.71853" rx="1.34409" transform="rotate(90 46.7559 237.313)" fill="#E7E7E7"/>
<rect x="32.4092" y="237.313" width="3.71853" height="3.71853" rx="1.34409" transform="rotate(90 32.4092 237.313)" fill="#E7E7E7"/>
<rect x="18.0645" y="237.313" width="3.71853" height="3.71853" rx="1.34409" transform="rotate(90 18.0645 237.313)" fill="#E7E7E7"/>
<rect x="3.71875" y="237.313" width="3.71853" height="3.71853" rx="1.34409" transform="rotate(90 3.71875 237.313)" fill="#E7E7E7"/>
<rect x="46.7559" y="252.188" width="3.71853" height="3.71853" rx="1.34409" transform="rotate(90 46.7559 252.188)" fill="#E7E7E7"/>
<rect x="32.4092" y="252.188" width="3.71853" height="3.71853" rx="1.34409" transform="rotate(90 32.4092 252.188)" fill="#E7E7E7"/>
<rect x="18.0645" y="252.188" width="3.71853" height="3.71853" rx="1.34409" transform="rotate(90 18.0645 252.188)" fill="#E7E7E7"/>
<rect x="3.71875" y="252.188" width="3.71853" height="3.71853" rx="1.34409" transform="rotate(90 3.71875 252.188)" fill="#E7E7E7"/>
<rect x="46.7559" y="267.062" width="3.71853" height="3.71853" rx="1.34409" transform="rotate(90 46.7559 267.062)" fill="#E7E7E7"/>
<rect x="32.4092" y="267.062" width="3.71853" height="3.71853" rx="1.34409" transform="rotate(90 32.4092 267.062)" fill="#E7E7E7"/>
<rect x="18.0645" y="267.062" width="3.71853" height="3.71853" rx="1.34409" transform="rotate(90 18.0645 267.062)" fill="#E7E7E7"/>
<rect x="3.71875" y="267.062" width="3.71853" height="3.71853" rx="1.34409" transform="rotate(90 3.71875 267.062)" fill="#E7E7E7"/>
<rect x="46.7559" y="281.936" width="3.71853" height="3.71853" rx="1.34409" transform="rotate(90 46.7559 281.936)" fill="#E7E7E7"/>
<rect x="32.4092" y="281.936" width="3.71853" height="3.71853" rx="1.34409" transform="rotate(90 32.4092 281.936)" fill="#E7E7E7"/>
<rect x="18.0645" y="281.936" width="3.71853" height="3.71853" rx="1.34409" transform="rotate(90 18.0645 281.936)" fill="#E7E7E7"/>
<rect x="3.71875" y="281.936" width="3.71853" height="3.71853" rx="1.34409" transform="rotate(90 3.71875 281.936)" fill="#E7E7E7"/>
</svg>
