<svg width="128" height="52" viewBox="0 0 128 52" fill="none" xmlns="http://www.w3.org/2000/svg">
<path d="M25.4553 36H0.434043V0.970211H6.15319V30.9957H19.7362V25.9915H25.4553V36ZM56.2097 30.9957C56.2097 32.3779 55.7093 33.5694 54.7084 34.5702C53.7552 35.5234 52.5876 36 51.2055 36H36.1927C34.8106 36 33.6191 35.5234 32.6182 34.5702C31.665 33.5694 31.1884 32.3779 31.1884 30.9957V15.983C31.1884 14.6008 31.665 13.4332 32.6182 12.48C33.6191 11.4791 34.8106 10.9787 36.1927 10.9787H51.2055C52.5876 10.9787 53.7552 11.4791 54.7084 12.48C55.7093 13.4332 56.2097 14.6008 56.2097 15.983V30.9957ZM51.2055 31.7106V15.2681H36.1927V31.7106H51.2055ZM94.1158 10.9787L89.8265 15.2681H71.9541V31.7106H86.9669V17.4128H91.9711V46.0085C91.9711 47.3906 91.4707 48.5583 90.4699 49.5115C89.5167 50.5123 88.349 51.0128 86.9669 51.0128H66.235L70.5243 46.7234H86.9669V32.354L82.6775 36H71.9541C70.572 36 69.3805 35.5234 68.3797 34.5702C67.4265 33.5694 66.9499 32.3779 66.9499 30.9957V15.983C66.9499 14.6008 67.4265 13.4332 68.3797 12.48C69.3805 11.4791 70.572 10.9787 71.9541 10.9787H94.1158ZM127.35 30.9957C127.35 32.3779 126.85 33.5694 125.849 34.5702C124.896 35.5234 123.728 36 122.346 36H107.333C105.951 36 104.759 35.5234 103.759 34.5702C102.805 33.5694 102.329 32.3779 102.329 30.9957V15.983C102.329 14.6008 102.805 13.4332 103.759 12.48C104.759 11.4791 105.951 10.9787 107.333 10.9787H122.346C123.728 10.9787 124.896 11.4791 125.849 12.48C126.85 13.4332 127.35 14.6008 127.35 15.983V30.9957ZM122.346 31.7106V15.2681H107.333V31.7106H122.346Z" fill="#F53D6B"/>
</svg>
