<svg width="86" height="35" viewBox="0 0 86 35" fill="none" xmlns="http://www.w3.org/2000/svg">
<path d="M17.12 24H0.32V0.48H4.16V20.64H13.28V17.28H17.12V24ZM37.7694 20.64C37.7694 21.568 37.4334 22.368 36.7614 23.04C36.1214 23.68 35.3374 24 34.4094 24H24.3294C23.4014 24 22.6014 23.68 21.9294 23.04C21.2894 22.368 20.9694 21.568 20.9694 20.64V10.56C20.9694 9.632 21.2894 8.848 21.9294 8.208C22.6014 7.536 23.4014 7.2 24.3294 7.2H34.4094C35.3374 7.2 36.1214 7.536 36.7614 8.208C37.4334 8.848 37.7694 9.632 37.7694 10.56V20.64ZM34.4094 21.12V10.08H24.3294V21.12H34.4094ZM63.2206 7.2L60.3406 10.08H48.3406V21.12H58.4206V11.52H61.7806V30.72C61.7806 31.648 61.4446 32.432 60.7726 33.072C60.1326 33.744 59.3486 34.08 58.4206 34.08H44.5006L47.3806 31.2H58.4206V21.552L55.5406 24H48.3406C47.4126 24 46.6126 23.68 45.9406 23.04C45.3006 22.368 44.9806 21.568 44.9806 20.64V10.56C44.9806 9.632 45.3006 8.848 45.9406 8.208C46.6126 7.536 47.4126 7.2 48.3406 7.2H63.2206ZM85.535 20.64C85.535 21.568 85.199 22.368 84.527 23.04C83.887 23.68 83.103 24 82.175 24H72.095C71.167 24 70.367 23.68 69.695 23.04C69.055 22.368 68.735 21.568 68.735 20.64V10.56C68.735 9.632 69.055 8.848 69.695 8.208C70.367 7.536 71.167 7.2 72.095 7.2H82.175C83.103 7.2 83.887 7.536 84.527 8.208C85.199 8.848 85.535 9.632 85.535 10.56V20.64ZM82.175 21.12V10.08H72.095V21.12H82.175Z" fill="#09003D"/>
</svg>
