<svg width="725" height="463" viewBox="0 0 725 463" fill="none" xmlns="http://www.w3.org/2000/svg">
<path d="M66.8296 18.8203C66.8296 8.91085 74.6875 0.877686 84.3808 0.877686H639.944C649.637 0.877686 657.495 8.91085 657.495 18.8203V399.155C657.495 401.392 655.682 403.205 653.445 403.205H70.8799C68.643 403.205 66.8296 401.392 66.8296 399.155V18.8203Z" fill="black"/>
<circle cx="362.5" cy="15.7288" r="1.95763" fill="#0F0F0F" stroke="#151515" stroke-width="0.135009"/>
<circle cx="362.297" cy="16.201" r="0.472533" fill="#16181E"/>
<circle cx="362.297" cy="15.526" r="0.472533" fill="#0A0B0D"/>
<circle opacity="0.6" cx="362.5" cy="15.7285" r="0.675047" fill="#1F2531"/>
<rect width="547.463" height="344.949" transform="translate(89.1064 31.2546)" fill="black"/>
<path fill-rule="evenodd" clip-rule="evenodd" d="M65.9521 18.8201C65.9521 8.44441 74.1848 0 84.3809 0H639.944C650.14 0 658.373 8.44441 658.373 18.8201V399.155C658.373 401.877 656.167 404.083 653.445 404.083H70.88C68.1584 404.083 65.9521 401.877 65.9521 399.155V18.8201ZM84.3809 1.75512C75.1905 1.75512 67.7073 9.37704 67.7073 18.8201V399.155C67.7073 400.907 69.1278 402.328 70.88 402.328H653.445C655.197 402.328 656.618 400.907 656.618 399.155V18.8201C656.618 9.37704 649.135 1.75512 639.944 1.75512H84.3809Z" fill="#6A6B6F"/>
<path opacity="0.18" d="M671.826 413C680.709 413 737.148 463 714.808 463H9.19224C-13.148 463 43.2911 413 52.1745 413H671.826Z" fill="url(#paint0_linear_713_229)"/>
<path d="M424.604 406.58V402.868H300.396V406.58C300.958 407.368 303.433 408.943 308.834 408.943H416.166C421.567 408.943 424.042 407.368 424.604 406.58Z" fill="url(#paint1_linear_713_229)"/>
<path d="M300.396 402.868H0V407.255H301.152C300.779 407.007 300.532 406.771 300.396 406.58V402.868Z" fill="url(#paint2_linear_713_229)"/>
<path d="M424.604 402.868V406.58C424.468 406.771 424.221 407.007 423.848 407.255H725V402.868H424.604Z" fill="url(#paint3_linear_713_229)"/>
<path d="M300.709 406.918C301.643 407.746 304.127 408.943 308.834 408.943H416.166C420.873 408.943 423.357 407.746 424.291 406.918H725C718.812 411.193 696.783 419.069 658.17 419.069H66.8296C28.2169 419.069 6.18794 411.193 0 406.918H300.709Z" fill="url(#paint4_linear_713_229)"/>
<path d="M67.5046 388.354H656.82V399.155C656.82 401.019 655.309 402.53 653.445 402.53H70.8799C69.0158 402.53 67.5046 401.019 67.5046 399.155V388.354Z" fill="#101010"/>
<path d="M344.573 398.198V391.729H343.636L341.403 397.172H341.368L339.135 391.729H338.198V398.198H338.951V393.213H338.983L341.045 398.198H341.726L343.788 393.213H343.82V398.198H344.573Z" fill="#909092"/>
<path d="M346.935 398.279C347.563 398.279 348.154 397.929 348.432 397.396H348.45V398.198H349.19V394.975C349.19 394.047 348.5 393.455 347.406 393.455C346.303 393.455 345.613 394.074 345.559 394.881H346.312C346.411 394.424 346.787 394.141 347.388 394.141C348.033 394.141 348.41 394.482 348.41 395.051V395.441L347.074 395.517C345.998 395.58 345.384 396.082 345.384 396.88C345.384 397.718 346.007 398.279 346.935 398.279ZM347.11 397.615C346.55 397.615 346.178 397.324 346.178 396.88C346.178 396.441 346.536 396.163 347.164 396.123L348.41 396.046V396.427C348.41 397.1 347.845 397.615 347.11 397.615Z" fill="#909092"/>
<path d="M354.054 395.065C353.955 394.226 353.26 393.455 352.095 393.455C350.808 393.455 349.952 394.397 349.952 395.867C349.952 397.369 350.813 398.279 352.104 398.279C353.162 398.279 353.942 397.624 354.063 396.696H353.296C353.162 397.257 352.745 397.593 352.108 397.593C351.301 397.593 350.745 396.952 350.745 395.867C350.745 394.809 351.292 394.141 352.099 394.141C352.785 394.141 353.18 394.558 353.292 395.065H354.054Z" fill="#909092"/>
<path d="M357.344 398.198C358.72 398.198 359.536 397.521 359.536 396.383C359.536 395.522 358.971 394.903 358.093 394.791V394.755C358.716 394.643 359.209 394.016 359.209 393.343C359.209 392.375 358.46 391.729 357.353 391.729H354.901V398.198H357.344ZM355.708 392.442H357.169C357.954 392.442 358.393 392.796 358.393 393.437C358.393 394.137 357.873 394.518 356.918 394.518H355.708V392.442ZM355.708 397.485V395.213H357.147C358.178 395.213 358.707 395.594 358.707 396.342C358.707 397.091 358.196 397.485 357.223 397.485H355.708Z" fill="#909092"/>
<path d="M362.262 398.279C363.548 398.279 364.418 397.351 364.418 395.867C364.418 394.379 363.548 393.455 362.262 393.455C360.971 393.455 360.101 394.379 360.101 395.867C360.101 397.351 360.971 398.279 362.262 398.279ZM362.262 397.593C361.437 397.593 360.894 396.965 360.894 395.867C360.894 394.769 361.437 394.141 362.262 394.141C363.086 394.141 363.624 394.769 363.624 395.867C363.624 396.965 363.086 397.593 362.262 397.593Z" fill="#909092"/>
<path d="M367.139 398.279C368.425 398.279 369.295 397.351 369.295 395.867C369.295 394.379 368.425 393.455 367.139 393.455C365.848 393.455 364.978 394.379 364.978 395.867C364.978 397.351 365.848 398.279 367.139 398.279ZM367.139 397.593C366.314 397.593 365.772 396.965 365.772 395.867C365.772 394.769 366.314 394.141 367.139 394.141C367.964 394.141 368.502 394.769 368.502 395.867C368.502 396.965 367.964 397.593 367.139 397.593Z" fill="#909092"/>
<path d="M370.904 396.441L371.339 396.028L373.069 398.198H373.975L371.89 395.549L373.912 393.536H372.966L370.904 395.607V391.729H370.124V398.198H370.904V396.441Z" fill="#909092"/>
<path d="M380.748 398.198H381.596L379.211 391.729H378.413L376.028 398.198H376.875L377.525 396.347H380.098L380.748 398.198ZM378.798 392.711H378.825L379.861 395.661H377.763L378.798 392.711Z" fill="#909092"/>
<path d="M382.645 392.707C382.918 392.707 383.133 392.487 383.133 392.218C383.133 391.945 382.918 391.729 382.645 391.729C382.376 391.729 382.156 391.945 382.156 392.218C382.156 392.487 382.376 392.707 382.645 392.707ZM382.255 398.198H383.035V393.536H382.255V398.198Z" fill="#909092"/>
<path d="M384.088 398.198H384.868V395.293C384.868 394.634 385.262 394.199 385.868 394.199C386.056 394.199 386.222 394.222 386.284 394.244V393.487C386.222 393.478 386.105 393.455 385.971 393.455C385.424 393.455 384.993 393.783 384.841 394.298H384.823V393.536H384.088V398.198Z" fill="#909092"/>
<defs>
<linearGradient id="paint0_linear_713_229" x1="362" y1="463" x2="362" y2="413" gradientUnits="userSpaceOnUse">
<stop stop-color="#9B9EA0" stop-opacity="0"/>
<stop offset="1" stop-color="#1B1D1E"/>
</linearGradient>
<linearGradient id="paint1_linear_713_229" x1="300.396" y1="404.893" x2="424.604" y2="404.893" gradientUnits="userSpaceOnUse">
<stop stop-color="#2E2F34"/>
<stop offset="0.116817" stop-color="#5C5D62"/>
<stop offset="0.253445" stop-color="#7E7F84"/>
<stop offset="0.505951" stop-color="#7E7F84"/>
<stop offset="0.734504" stop-color="#7E7F84"/>
<stop offset="0.908586" stop-color="#57585D"/>
<stop offset="1" stop-color="#303136"/>
</linearGradient>
<linearGradient id="paint2_linear_713_229" x1="4.03366e-06" y1="405.235" x2="725" y2="405.232" gradientUnits="userSpaceOnUse">
<stop stop-color="#3E3F43"/>
<stop offset="0.0244084" stop-color="#8A8B8F"/>
<stop offset="0.979558" stop-color="#8A8B8F"/>
<stop offset="1" stop-color="#46474B"/>
</linearGradient>
<linearGradient id="paint3_linear_713_229" x1="4.03366e-06" y1="405.235" x2="725" y2="405.232" gradientUnits="userSpaceOnUse">
<stop stop-color="#3E3F43"/>
<stop offset="0.0244084" stop-color="#8A8B8F"/>
<stop offset="0.979558" stop-color="#8A8B8F"/>
<stop offset="1" stop-color="#46474B"/>
</linearGradient>
<linearGradient id="paint4_linear_713_229" x1="362.5" y1="407.255" x2="362.5" y2="426.494" gradientUnits="userSpaceOnUse">
<stop stop-color="#55565A"/>
<stop offset="1"/>
</linearGradient>
</defs>
</svg>
