<svg width="181" height="34" viewBox="0 0 181 34" fill="none" xmlns="http://www.w3.org/2000/svg">
<path d="M3.80008 26.6434C2.44823 26.6463 1.19936 25.9216 0.531141 24.7464C-0.127443 23.5785 -0.0879499 22.1425 0.63383 21.0125L7.36568 10.4412C8.06714 9.28457 9.33668 8.59477 10.6888 8.63563C12.04 8.66801 13.269 9.42557 13.905 10.6181C14.5325 11.8047 14.4541 13.2324 13.7025 14.3463L6.97489 24.9176C6.28151 25.9981 5.08389 26.6491 3.80008 26.6434Z" fill="#F62B54"/>
<path d="M15.347 26.6428C13.9892 26.6428 12.7398 25.9168 12.0838 24.7502C11.4266 23.5854 11.4661 22.1531 12.1864 21.0263L18.9055 10.4792C19.5968 9.30596 20.8701 8.59996 22.2315 8.6351C23.6006 8.66505 24.8415 9.43095 25.469 10.629C26.0923 11.827 26.001 13.2633 25.2266 14.3743L18.509 24.9213C17.8178 25.9971 16.6257 26.6461 15.347 26.6428Z" fill="#FFCC00"/>
<path d="M26.6357 26.7325C28.5498 26.7325 30.1014 25.2133 30.1014 23.3394C30.1014 21.4655 28.5498 19.9464 26.6357 19.9464C24.7216 19.9464 23.1699 21.4655 23.1699 23.3394C23.1699 25.2133 24.7216 26.7325 26.6357 26.7325Z" fill="#00CA72"/>
<path d="M177.198 20.1417C178.245 20.1417 178.871 20.8862 178.871 22.1056V26.2845H180.293V22.0101C180.293 19.9363 179.316 18.734 177.479 18.734C176.76 18.734 175.619 18.9308 174.938 20.2529C174.616 19.4584 173.884 18.905 173.032 18.8124C172.768 18.7642 172.5 18.7484 172.233 18.7654C171.648 18.8124 170.607 19.1761 170.218 20.0005V18.8923H168.794V26.2845H170.218V22.2953C170.218 20.7436 171.233 20.1417 172.25 20.1417C173.203 20.1417 173.829 20.8705 173.829 22.0899V26.2845H175.244V22.2953C175.244 21.0602 175.985 20.1274 177.198 20.1417ZM163.57 25.0494C164.22 25.0636 164.848 24.8041 165.303 24.3334C165.759 23.8627 166.002 23.2224 165.977 22.5649C165.977 21.0759 164.882 20.1417 163.57 20.1417C162.256 20.1417 161.162 21.0759 161.162 22.5649C161.137 23.2209 161.379 23.8599 161.833 24.3291C162.286 24.7998 162.911 25.0608 163.559 25.0494H163.57ZM163.57 26.4357C161.49 26.4357 159.755 24.8996 159.755 22.5563C159.755 20.213 161.49 18.7254 163.57 18.7254C165.649 18.7254 167.399 20.213 167.399 22.5563C167.399 24.8996 165.639 26.4428 163.56 26.4428L163.57 26.4357ZM152.431 22.5563L152.417 22.5649C152.417 20.2216 154.198 18.734 156.292 18.7254C157.356 18.7049 158.378 19.1361 159.106 19.9121L158.028 20.8306C157.565 20.3763 156.94 20.1258 156.292 20.1346C154.98 20.1346 153.839 21.0687 153.839 22.5563C153.839 23.5618 154.436 24.4675 155.353 24.8526C156.27 25.2376 157.326 25.0237 158.028 24.3134L159.121 25.2319C158.391 26.0159 157.363 26.4534 156.292 26.4357C154.214 26.4357 152.431 24.8996 152.431 22.5563ZM147.877 24.8654C147.874 24.6044 147.975 24.3529 148.157 24.1662C148.34 23.9795 148.589 23.8729 148.85 23.8699C149.111 23.8729 149.36 23.9795 149.542 24.1662C149.725 24.3529 149.825 24.6044 149.822 24.8654C149.796 25.3849 149.37 25.7942 148.85 25.7996C148.33 25.7942 147.903 25.3849 147.877 24.8654Z" fill="#333333"/>
<path d="M151.768 9.49563H146.703L143.154 18.6478L139.622 9.49563H134.558L140.715 23.9577L136.885 33.5192H141.913L151.768 9.49563ZM120.967 17.5396C120.967 19.8501 122.987 21.3705 124.97 21.3705C126.92 21.3705 128.836 19.9557 128.836 17.5382C128.836 15.1207 126.92 13.7045 124.97 13.7045C122.987 13.7045 120.967 15.2263 120.967 17.5382V17.5396ZM128.836 25.615V23.7851C127.809 25.3397 125.413 25.9273 124.183 25.9273C120.113 25.9273 116.041 22.7183 116.041 17.5382C116.041 12.3595 120.111 9.15048 124.183 9.15048C125.209 9.15048 127.605 9.49277 128.836 11.2898V9.50133H133.556V25.6178L128.836 25.6164V25.615ZM114.697 25.615H109.976V23.6125C109.188 25.0958 107.275 25.9601 105.29 25.9601C101.184 25.9601 97.5567 22.6812 97.5567 17.6038C97.5567 12.4308 101.184 9.14762 105.29 9.14762C107.272 9.14762 109.19 9.97484 109.976 11.4596V0.715698H114.697V25.615ZM109.874 17.5025C109.874 15.0865 108.129 13.6702 106.18 13.6702C104.16 13.6702 102.483 15.1892 102.483 17.5025C102.483 19.8901 104.16 21.4019 106.178 21.4019C108.165 21.4047 109.874 19.8159 109.874 17.5025ZM85.8843 17.0861C85.8843 14.6358 87.1508 13.8071 88.8267 13.8071C90.434 13.8071 91.5978 14.8768 91.5978 17.0162V25.6121H96.3529V15.9822C96.3529 11.3925 94.0938 9.14762 90.5011 9.14762C88.6199 9.14762 86.7386 10.2173 85.8829 11.8404V9.49563H81.1307V25.6121H85.8843V17.0861ZM71.475 25.8888C66.9596 25.8888 63.1929 22.5757 63.1929 17.5011C63.1929 12.4237 66.9553 9.14335 71.475 9.14335C75.9948 9.14335 79.79 12.4237 79.79 17.5011C79.79 22.5785 75.9905 25.8902 71.475 25.8902V25.8888ZM71.475 21.1965C73.4575 21.1965 75.102 19.7446 75.102 17.5025C75.102 15.3275 73.4589 13.8428 71.475 13.8428C70.5097 13.8277 69.5804 14.2098 68.9049 14.8996C68.2257 15.593 67.8567 16.5322 67.8823 17.5025C67.8838 19.7474 69.5254 21.1965 71.475 21.1965ZM54.6682 13.8086C56.0702 13.8086 57.3025 14.9139 57.3025 17.0176V25.615H62.0233V16.4614C62.0233 11.5951 59.6572 9.14477 55.8648 9.14477C54.7381 9.14477 52.6159 9.48707 51.0755 12.0087C50.1856 10.1446 48.4755 9.17758 45.9482 9.17758C44.1561 9.16846 42.5242 10.2081 41.775 11.8361V9.49705H37.0171V25.6136H41.7707V17.0861C41.7707 14.6358 43.1057 13.8071 44.5419 13.8071C45.9111 13.8071 47.1405 14.8768 47.1762 16.9135V25.6136H51.9313V17.0861C51.9313 14.7428 53.1635 13.81 54.6682 13.81V13.8086Z" fill="#333333"/>
</svg>
