<svg width="181" height="38" viewBox="0 0 181 38" fill="none" xmlns="http://www.w3.org/2000/svg">
<path d="M179.047 13.4462C180.46 14.5893 178.964 16.3976 177.716 15.4832C176.178 14.5063 172.686 14.0491 172.25 16.2105C171.689 19.6193 180.73 17.6656 180.585 23.1942C180.439 28.4737 172.79 28.5984 169.922 26.2288C169.236 25.6678 169.257 24.7531 169.631 24.1919C170.171 23.6516 170.774 23.4645 171.481 24.0464C173.185 25.2104 177.571 26.0834 177.883 23.132C177.613 20.0557 168.966 21.9056 169.61 16.0028C170.088 11.9705 176.178 11.243 179.047 13.4462ZM165.411 14.2568V21.7809C165.411 29.5544 152.878 29.5544 152.878 21.7809V14.2568C152.878 12.3863 155.601 12.303 155.601 14.2568V21.7809C155.601 25.8755 162.688 26.125 162.688 21.7809V14.2568C162.688 12.4069 165.411 12.2614 165.411 14.2568ZM79.588 12.3655C83.2253 12.5524 87.0289 15.0674 87.0289 19.9935C87.0289 24.9194 83.2253 27.476 79.588 27.476C75.7428 27.6423 71.7521 25.0857 71.7521 19.9935C71.7521 14.8803 75.7428 12.3655 79.588 12.3655ZM97.8999 12.8849C103.179 12.8849 104.26 19.9519 99.8537 21.7185L102.618 25.0857C103.699 26.6862 101.537 28.2242 100.29 26.6446L97.1516 22.1551H93.8884V25.9171C93.8884 27.7253 91.124 27.7878 91.124 25.9587V14.1529C91.124 13.4254 91.6852 12.8849 92.3712 12.8849H97.8999ZM54.8325 12.698C55.4353 12.698 55.7887 13.0514 56.142 13.4462L60.7146 19.6193L65.4536 13.2175C66.1395 12.3655 67.8231 12.698 67.8231 14.1321V25.834C67.8231 26.7485 67.2411 27.2681 66.576 27.2681C65.8277 27.2681 65.2457 26.7485 65.2457 25.834V18.1436L61.7955 22.5085C61.0472 23.4229 60.1119 23.4229 59.426 22.5085L56.3291 18.1436V25.834C56.3291 26.7485 55.5808 27.2681 54.8325 27.2681C54.1674 27.2681 53.5854 26.7485 53.5854 25.834V14.1321C53.5854 13.0514 54.5 12.698 54.8325 12.698ZM112.969 12.698C115.671 12.698 118.103 14.5063 118.103 17.9773C118.103 21.2613 115.671 23.0903 112.969 23.0903H109.498V25.834C109.498 26.7485 108.916 27.2681 108.168 27.2681C107.482 27.2681 106.755 26.7485 106.755 25.834V14.1321C106.755 13.4462 107.295 12.698 108.168 12.698H112.969ZM132.819 12.8849C133.547 12.8849 134.108 13.4254 134.108 14.1737V25.9795C134.108 26.7069 133.547 27.2681 132.819 27.2681C132.071 27.2681 131.406 26.7069 131.406 25.9795V21.4276H124.63V25.9795C124.63 26.7069 124.09 27.2681 123.362 27.2681C122.427 27.2681 121.887 26.7069 121.887 25.9795V14.1737C121.887 13.4254 122.427 12.8849 123.362 12.8849C124.09 12.8849 124.63 13.4254 124.63 14.1737V18.7049H131.406V14.1737C131.406 13.4254 132.071 12.8849 132.819 12.8849ZM147.286 12.8849C149.199 12.8849 149.157 15.587 147.286 15.587H141.3V18.7049H146.538C148.388 18.7049 148.388 21.4276 146.538 21.4276H141.3V24.5452H147.64C149.531 24.5452 149.677 27.2681 147.64 27.2681H139.825C139.097 27.2681 138.536 26.7069 138.536 25.9795V14.1737C138.536 13.4254 139.097 12.8849 139.825 12.8849H147.286ZM79.3593 15.0674C77.0314 15.0674 74.4957 16.7095 74.4957 19.9935C74.4957 23.2566 77.0314 24.9194 79.3593 24.9194C81.7496 24.9194 84.3061 23.2566 84.3061 19.9935C84.3061 16.7095 81.7496 15.0674 79.3593 15.0674ZM112.969 15.3169H109.498V20.4923H112.969C114.362 20.4923 115.464 19.266 115.464 17.9773C115.464 16.5224 114.362 15.3169 112.969 15.3169ZM97.8999 15.3999H93.8884V19.7648H97.8999C100.602 19.7648 100.768 15.3999 97.8999 15.3999Z" fill="#3DB5E6"/>
<path d="M37.0978 23.7966C35.0714 31.9378 27.6573 37.7298 18.9251 37.7298C10.1533 37.7298 2.80296 31.5949 0.859619 23.4202C3.19638 23.4202 5.38092 23.4309 6.3951 23.4309C6.87352 23.4309 6.96643 23.4392 6.99411 23.4372C7.75722 23.3996 8.71407 23.1478 9.35064 21.5998L11.7764 15.2544L17.1636 28.2251C17.6479 29.259 18.4565 29.1858 18.9389 29.1858H18.9844C19.9254 29.1858 20.3346 28.856 20.6925 28.174L26.7775 15.3517L28.8533 21.1304L28.9799 21.4102C29.4187 22.373 29.7345 23.324 30.8206 23.4482C31.0445 23.4738 33.6446 23.4284 37.1497 23.4284C37.1497 23.4284 37.1497 23.4509 37.0978 23.7966Z" fill="#3DB5E6"/>
<path d="M37.6928 19.0016C37.6928 19.0985 37.6928 19.3421 37.6908 19.3421H37.6869H32.0922L28.8281 10.2242C28.5375 9.54614 28.1006 8.52959 26.8274 8.52959C26.0485 8.52959 25.3447 9.17288 24.9454 10.2345L19.0283 23.9402L13.3327 10.3176C12.7752 9.10775 12.3897 8.53873 11.2747 8.53873C10.5175 8.53873 9.96201 8.81765 9.35706 10.2509L5.97647 19.4775L0.359928 19.4716C0.355971 19.3312 0.354004 19.1909 0.354004 19.0505C0.354004 8.79408 8.66909 0.504944 18.9255 0.504944C29.182 0.504944 37.6928 8.74514 37.6928 19.0016Z" fill="#D8292F"/>
</svg>
