<svg width="181" height="24" viewBox="0 0 181 24" fill="none" xmlns="http://www.w3.org/2000/svg">
<path d="M77.8072 15.6455H89.7165L83.4193 5.51422L71.8617 23.832H66.6017L80.6595 1.82843C81.2708 0.939396 82.2894 0.402283 83.4193 0.402283C84.512 0.402283 85.5307 0.920883 86.1234 1.79139L100.237 23.832H94.9767L92.4948 19.7388H80.4372L77.8072 15.6455ZM132.446 19.7388V0.624541H127.982V21.6095C127.982 22.1836 128.204 22.7393 128.63 23.1653C129.056 23.5913 129.63 23.832 130.26 23.832H150.615L153.245 19.7388H132.446ZM58.6004 16.3123C62.9345 16.3123 66.4536 12.8117 66.4536 8.47767C66.4536 4.14364 62.9345 0.624541 58.6004 0.624541H39.073V23.832H43.535V4.71781H58.304C60.3785 4.71781 62.0454 6.40325 62.0454 8.47767C62.0454 10.5521 60.3785 12.2376 58.304 12.2376L45.7205 12.219L59.0448 23.832H65.5275L56.5631 16.3123H58.6004ZM11.6057 23.832C5.19903 23.832 0 18.646 0 12.2376C0 5.82909 5.19903 0.624541 11.6057 0.624541H25.0948C31.5033 0.624541 36.6986 5.82909 36.6986 12.2376C36.6986 18.646 31.5033 23.832 25.0948 23.832H11.6057ZM24.7948 19.7388C28.9455 19.7388 32.3072 16.3864 32.3072 12.2376C32.3072 8.08872 28.9455 4.71781 24.7948 4.71781H11.9038C7.75501 4.71781 4.39142 8.08872 4.39142 12.2376C4.39142 16.3864 7.75501 19.7388 11.9038 19.7388H24.7948ZM109.553 23.832C103.145 23.832 97.9401 18.646 97.9401 12.2376C97.9401 5.82909 103.145 0.624541 109.553 0.624541H125.574L122.963 4.71781H109.849C105.701 4.71781 102.33 8.08872 102.33 12.2376C102.33 16.3864 105.701 19.7388 109.849 19.7388H125.945L123.315 23.832H109.553ZM164.136 19.7388C160.71 19.7388 157.802 17.4421 156.913 14.2749H175.99L178.62 10.1816H156.913C157.802 7.03299 160.71 4.71781 164.136 4.71781H177.231L179.879 0.624541H163.84C157.431 0.624541 152.227 5.82909 152.227 12.2376C152.227 18.646 157.431 23.832 163.84 23.832H177.601L180.231 19.7388H164.136Z" fill="#EA1B22"/>
</svg>
