<svg width="34" height="34" viewBox="0 0 34 34" fill="none" xmlns="http://www.w3.org/2000/svg">
<path d="M15.2666 1.06493C15.8049 -0.354975 17.8423 -0.354975 18.3823 1.06493L21.8647 10.7115C21.9862 11.0257 22.2002 11.2958 22.4783 11.4859C22.7564 11.676 23.0857 11.7773 23.4226 11.7764H31.9807C33.5621 11.7764 34.2519 13.7448 33.0086 14.7088L26.9185 20.1882C26.6457 20.3979 26.4464 20.6886 26.349 21.0187C26.2517 21.3487 26.2614 21.7011 26.3768 22.0253L28.6009 31.4515C29.1426 32.9656 27.3896 34.2661 26.0639 33.334L17.7918 28.0851C17.5085 27.886 17.1707 27.7792 16.8244 27.7792C16.4782 27.7792 16.1404 27.886 15.8571 28.0851L7.58498 33.334C6.26097 34.2661 4.50628 32.9639 5.048 31.4515L7.27206 22.0253C7.38743 21.7011 7.39715 21.3487 7.29983 21.0187C7.20251 20.6886 7.00315 20.3979 6.73034 20.1882L0.640243 14.7088C-0.604695 13.7448 0.0884323 11.7764 1.66648 11.7764H10.2246C10.5615 11.7776 10.8909 11.6763 11.1691 11.4862C11.4473 11.296 11.6611 11.0259 11.7824 10.7115L15.2649 1.06493H15.2666Z" fill="#F8D027"/>
<path d="M15.2666 1.06493C15.8049 -0.354975 17.8423 -0.354975 18.3823 1.06493L21.8647 10.7115C21.9862 11.0257 22.2002 11.2958 22.4783 11.4859C22.7564 11.676 23.0857 11.7773 23.4226 11.7764H31.9807C33.5621 11.7764 34.2519 13.7448 33.0086 14.7088L26.9185 20.1882C26.6457 20.3979 26.4464 20.6886 26.349 21.0187C26.2517 21.3487 26.2614 21.7011 26.3768 22.0253L28.6009 31.4515C29.1426 32.9656 27.3896 34.2661 26.0639 33.334L17.7918 28.0851C17.5085 27.886 17.1707 27.7792 16.8244 27.7792C16.4782 27.7792 16.1404 27.886 15.8571 28.0851L7.58498 33.334C6.26097 34.2661 4.50628 32.9639 5.048 31.4515L7.27206 22.0253C7.38743 21.7011 7.39715 21.3487 7.29983 21.0187C7.20251 20.6886 7.00315 20.3979 6.73034 20.1882L0.640243 14.7088C-0.604695 13.7448 0.0884323 11.7764 1.66648 11.7764H10.2246C10.5615 11.7776 10.8909 11.6763 11.1691 11.4862C11.4473 11.296 11.6611 11.0259 11.7824 10.7115L15.2649 1.06493H15.2666Z" stroke="#F8D027"/>
</svg>
