<svg width="181" height="28" viewBox="0 0 181 28" fill="none" xmlns="http://www.w3.org/2000/svg">
<path d="M171.826 12.4391V16.1968H174.467V19.9251C174.474 20.2107 174.462 20.5155 174.422 20.7778L174.4 20.9051C174.396 20.9335 174.39 20.9627 174.384 20.9926L174.363 21.0843C174.359 21.0999 174.354 21.1156 174.35 21.1315L174.319 21.2282C174.081 21.9147 173.366 22.7846 171.76 22.7846C170.048 22.7846 169.362 21.786 169.174 21.0843L169.152 20.9926L169.135 20.9051C169.088 20.6176 169.068 20.2583 169.068 19.9251V8.14936C169.068 7.77911 169.09 7.37775 169.157 7.05077L169.202 6.85207C169.205 6.83831 169.209 6.82433 169.213 6.81014L169.238 6.72263C169.242 6.70767 169.247 6.69254 169.252 6.67725L169.285 6.5837C169.529 5.93308 170.175 5.06654 171.746 5.06654C172.959 5.06654 173.611 5.56069 173.96 6.07141L174.022 6.16725C174.042 6.19918 174.06 6.23106 174.078 6.26278L174.126 6.35729L174.169 6.4501L174.206 6.5405L174.238 6.62778L174.266 6.71126L174.288 6.79023L174.307 6.86399L174.321 6.93185C174.328 6.96559 174.334 7.00142 174.34 7.03866L174.355 7.15401C174.358 7.17372 174.36 7.19363 174.362 7.21365L174.378 7.39452L174.388 7.56798L174.398 7.8045L174.4 7.92571V9.35562H180.889L180.89 8.4655L180.894 8.14715L180.893 7.90038L180.887 7.61306L180.882 7.45837L180.87 7.21726L180.854 6.97027L180.839 6.80513C180.4 2.45515 177.131 0.781523 173.152 0.490298L172.886 0.472917L172.618 0.459546C172.483 0.453849 172.348 0.449625 172.212 0.446824L171.94 0.443108C171.894 0.442648 171.849 0.442648 171.803 0.442648L171.529 0.444514C171.484 0.445138 171.439 0.44592 171.393 0.446862L171.122 0.45444L170.853 0.46593L170.586 0.481415L170.321 0.500979C170.233 0.508189 170.146 0.516092 170.059 0.524704L169.799 0.552673C169.756 0.557693 169.713 0.562894 169.67 0.568276L169.414 0.602768C168.819 0.688413 168.247 0.81042 167.705 0.973542L167.475 1.04598C164.961 1.87083 163.133 3.62453 162.758 6.80513L162.72 7.15819L162.693 7.43155L162.668 7.71815L162.648 8.00327C162.636 8.1896 162.629 8.36515 162.629 8.51031L162.629 19.4818L162.631 19.618L162.637 19.8249L162.643 19.97L162.652 20.125L162.664 20.2935L162.678 20.4792L162.707 20.7977L162.731 21.0421C163.095 25.0843 166.159 26.8825 169.908 27.3068L170.171 27.3342C170.61 27.3761 171.058 27.3998 171.512 27.4065L171.785 27.4085L172.059 27.4065C172.515 27.3998 172.966 27.3761 173.407 27.3342L173.67 27.3068C177.431 26.8825 180.475 25.0843 180.846 21.0421L180.876 20.6856L180.898 20.384L180.918 20.0461L180.93 19.755L180.94 19.3428V12.4391H171.826ZM127.084 1.13577H120.568V20.1968C120.578 20.5289 120.568 20.9021 120.511 21.1757L120.492 21.2587L120.468 21.347C120.459 21.3772 120.449 21.4082 120.439 21.4398L120.405 21.5365C120.159 22.1919 119.533 23.047 118.035 23.047C116.63 23.047 115.988 22.2752 115.72 21.6362L115.68 21.5365C115.674 21.5201 115.668 21.5039 115.663 21.4878L115.632 21.3929L115.607 21.3022C115.603 21.2875 115.599 21.273 115.596 21.2587L115.578 21.1757C115.513 20.9021 115.504 20.5289 115.513 20.1968V1.13577H108.998V19.6052L108.997 19.7537L108.999 20.0133L109.009 20.3954L109.026 20.8597L109.039 21.0934L109.047 21.2175L109.056 21.3087C109.375 24.7258 111.379 26.5045 114.211 27.2487L114.452 27.3092C114.979 27.4349 115.532 27.5264 116.107 27.5876L116.374 27.6137L116.644 27.6356L116.917 27.6533C117.054 27.6611 117.193 27.6674 117.332 27.6722L117.611 27.6799L117.893 27.6837C117.94 27.6841 117.987 27.6841 118.035 27.6841L118.318 27.6822C118.365 27.6816 118.412 27.6808 118.459 27.6799L118.739 27.6722C118.878 27.6674 119.017 27.6611 119.154 27.6533L119.427 27.6356L119.698 27.6137L119.965 27.5876C123.776 27.1829 126.635 25.4477 127.029 21.3087L127.034 21.2676L127.045 21.1591L127.061 20.9429L127.075 20.6812L127.083 20.492L127.09 20.2018L127.093 20.0133L127.092 19.8361L127.088 19.6765C127.087 19.6517 127.086 19.6279 127.084 19.6052V1.13577ZM67.2112 1.13577L63.9607 21.2763L60.7121 1.13577H50.2008L49.6433 26.9013H56.0829L56.2573 3.04938L60.6879 26.9013H67.2215L71.6561 3.04938L71.8311 26.9013H78.2869L77.7106 1.13577H67.2112ZM28.2935 1.13577L23.5208 26.9013H30.4808L34.0774 3.04938L37.5877 26.9013H44.4993L39.7464 1.13577H28.2935ZM149.858 21.8801L143.79 1.13577H134.229V26.6327H140.554L140.186 5.22469L146.703 26.6327H155.873V1.13577H149.506L149.858 21.8801ZM91.3517 7.84134C91.2372 7.3325 91.2703 6.7919 91.3295 6.50936C91.3463 6.43438 91.3661 6.35878 91.3894 6.28329L91.4272 6.17024C91.6843 5.45595 92.2857 4.78499 93.6646 4.78499C95.1528 4.78499 96.0252 5.71268 96.0252 7.10488V8.68037H102.377V6.88454C102.377 2.83188 99.7251 1.27292 96.8909 0.726515L96.6576 0.683855L96.4238 0.645572L96.1898 0.611484L95.9559 0.581408L95.7223 0.555162L95.4895 0.532561C95.4121 0.525615 95.3348 0.519247 95.2577 0.513425L95.0272 0.497569L94.7983 0.484812L94.5714 0.47497L94.3467 0.467861L94.1245 0.463302L93.7966 0.460844L93.6521 0.461354L93.3647 0.465454C93.317 0.466483 93.2694 0.467685 93.2219 0.469063L92.9383 0.479439C92.8442 0.483605 92.7505 0.488483 92.6573 0.494084L92.3791 0.513066C88.5038 0.809503 85.4796 2.40132 84.8747 6.13418C84.6957 7.27096 84.6514 8.28004 84.9362 9.56769C85.3846 11.6836 87.1473 13.1894 89.1707 14.4523L89.4839 14.6447C89.5364 14.6765 89.5891 14.7081 89.6418 14.7396L89.9596 14.9268L90.2794 15.111L90.6002 15.2924L91.0818 15.5598L92.3472 16.2533L92.6547 16.4237L92.9568 16.5937L93.2529 16.7633L93.542 16.933C94.921 17.7537 96.026 18.586 96.4235 19.5811C96.6436 20.1722 96.5955 20.9174 96.4891 21.3929L96.4708 21.4695C96.4445 21.5838 96.4115 21.6982 96.3699 21.8106L96.3255 21.9223C96.0328 22.606 95.3931 23.1889 93.9875 23.1889C92.3842 23.1889 91.4192 22.2672 91.4192 20.878L91.4172 18.4052H84.5799V20.3708C84.5799 24.9841 87.5069 26.9881 91.1726 27.5831L91.4455 27.6246C91.6282 27.6506 91.8127 27.6732 91.9985 27.6926L92.2783 27.7193C92.6058 27.7477 92.9373 27.7664 93.2712 27.7763L93.5581 27.7826C93.606 27.7833 93.6539 27.7838 93.7019 27.7842L93.8459 27.7847C93.9418 27.7847 94.0373 27.784 94.1325 27.7826L94.4168 27.7764C94.464 27.775 94.5111 27.7735 94.5581 27.7717L94.8388 27.7592C94.932 27.7543 95.0248 27.7487 95.1171 27.7423L95.3926 27.7211C95.5754 27.7055 95.7563 27.6869 95.9352 27.6653L96.202 27.6306L96.4655 27.5912C96.5528 27.5774 96.6396 27.5627 96.7258 27.5473L96.9826 27.4985C100.086 26.8768 102.394 25.1909 102.858 21.9496C102.922 21.4661 102.961 21.0197 102.982 20.6115L102.994 20.3451C102.995 20.3017 102.997 20.2587 102.998 20.2162L103.002 19.9671V19.7295L102.998 19.5035L102.991 19.2893L102.98 19.087C102.978 19.0543 102.976 19.022 102.974 18.9903L102.96 18.8059L102.944 18.6336L102.926 18.4734L102.898 18.2561L102.869 18.0666L102.831 17.8578L102.813 17.7723C102.365 15.5286 100.401 13.9438 98.2188 12.6393L97.9057 12.4548L97.5905 12.2739L97.274 12.0963L96.7987 11.8356L96.1683 11.4973L95.0933 10.9255L94.6509 10.6861C94.6025 10.6597 94.5544 10.6333 94.5066 10.6069L94.2236 10.449L93.9485 10.2918C92.5945 9.50674 91.5711 8.73591 91.3517 7.84134ZM7.55748 7.77815C7.44055 7.29119 7.45883 6.77893 7.51882 6.48126L7.54365 6.36981L7.57184 6.25953C7.78643 5.48584 8.37315 4.68839 9.88961 4.68839C11.3966 4.68839 12.2839 5.62501 12.2839 7.02846V8.62313H18.7106V6.81307C18.7106 2.94573 16.3047 1.32156 13.6163 0.686225L13.3819 0.633441C13.186 0.59148 12.989 0.55452 12.7916 0.522085L12.5546 0.485303L12.3176 0.452682L12.0809 0.424037L11.8448 0.399185C11.7662 0.391513 11.6878 0.384443 11.6096 0.377944L11.3756 0.360129L11.1431 0.345558L10.9124 0.334047L10.6839 0.325414L10.4578 0.319474L10.124 0.314941H10.0143C9.91799 0.314941 9.82201 0.315615 9.72643 0.316972L9.44086 0.323109C9.2513 0.328583 9.06338 0.336838 8.87728 0.34796L8.59951 0.366806C8.55345 0.370309 8.50751 0.373994 8.46169 0.377862L8.18824 0.403284C8.09759 0.412498 8.00744 0.422456 7.91782 0.43317L7.65056 0.467588C7.42919 0.498175 7.21124 0.53355 6.99704 0.573883L6.74181 0.624674L6.49029 0.680291L6.24261 0.740798C6.16071 0.761789 6.07947 0.783607 5.9989 0.806261L5.75928 0.876746C3.26515 1.64343 1.46775 3.2514 1.01402 6.04154C0.826765 7.19652 0.794673 8.21255 1.0653 9.51443C1.54176 11.7642 3.485 13.3309 5.65902 14.6474L5.97867 14.8383C6.03217 14.8699 6.08578 14.9013 6.13947 14.9325L6.46245 15.1186L6.94879 15.3926L7.59624 15.7498L8.55122 16.2732L9.01514 16.5314L9.46614 16.7887L9.75819 16.9603C9.80623 16.9889 9.85394 17.0175 9.90131 17.0461L10.1812 17.2183C11.3747 17.9659 12.3095 18.7359 12.6704 19.6386C12.9067 20.2257 12.8514 20.9707 12.7398 21.4616L12.7207 21.541C12.6931 21.654 12.6592 21.7671 12.6173 21.8784L12.5727 21.989C12.2725 22.6848 11.6282 23.2816 10.2042 23.2816C8.59468 23.2816 7.63192 22.3439 7.63192 20.9355L7.62299 18.4562H0.708984V20.4264C0.708984 25.9566 4.87859 27.7743 9.49627 27.9109L9.78543 27.9173L10.0755 27.9194L10.3624 27.9173C10.5053 27.9153 10.6474 27.9117 10.7885 27.9066L11.0695 27.8941C11.2094 27.8869 11.3483 27.878 11.4862 27.8675L11.7606 27.8444L12.0321 27.8168C12.1221 27.8069 12.2117 27.7962 12.3006 27.7848L12.5661 27.7482C12.654 27.7352 12.7414 27.7215 12.8282 27.707L13.087 27.6612C16.3004 27.0595 18.6952 25.355 19.1774 22.021C19.2439 21.5448 19.2854 21.1041 19.3086 20.7003L19.3214 20.4366L19.3292 20.1839C19.3311 20.1015 19.3321 20.0209 19.3325 19.9422L19.3317 19.7117L19.3271 19.4924L19.3193 19.2845L19.3087 19.0879L19.2957 18.9028L19.2808 18.7292L19.2556 18.4907L19.2286 18.2786L19.192 18.0373L19.1503 17.8034C18.7044 15.5863 16.7987 14.0089 14.6546 12.7116L14.3393 12.5237C14.2865 12.4927 14.2336 12.4619 14.1806 12.4312L13.8618 12.2488L13.5417 12.0698L13.2211 11.8939L12.901 11.7209L11.4886 10.9711L11.0369 10.7291L10.7436 10.5691L10.4575 10.4101L10.1795 10.2516C10.1338 10.2252 10.0886 10.1989 10.0438 10.1725L9.77946 10.0145C8.61246 9.30368 7.75552 8.59247 7.55748 7.77815Z" fill="#1428A0"/>
</svg>
