<svg width="181" height="38" viewBox="0 0 181 38" fill="none" xmlns="http://www.w3.org/2000/svg">
<path d="M32.935 20.4322L32.9589 20.4341L35.4501 20.6945C35.625 20.7133 35.7856 20.7987 35.8991 20.9321L35.9175 20.9548L35.8939 20.9666C36.0103 21.1135 36.0616 21.3016 36.0359 21.4873C35.4916 25.8144 33.4407 29.8116 30.243 32.7772C26.9251 35.8545 22.5671 37.5643 18.0417 37.5643C15.8438 37.5678 13.6646 37.1632 11.615 36.3711L11.5033 36.3276C11.3356 36.2656 11.2008 36.138 11.1294 35.9749L11.1187 35.9489C11.0488 35.7865 11.0449 35.6038 11.1071 35.4392L12.0904 33.0402C12.2236 32.7011 12.6012 32.5302 12.9422 32.6505L12.9649 32.6589C17.991 34.5996 23.6835 33.5065 27.6335 29.8424C30.1477 27.5322 31.7689 24.4111 32.2134 21.0257C32.2604 20.6762 32.5637 20.4219 32.9113 20.4311L32.935 20.4322ZM91.7696 10.2507C93.8938 10.2507 95.5549 10.8988 96.6158 12.1434L96.6514 12.1856V11.1323C96.6656 10.8383 96.8932 10.6007 97.1838 10.572L97.2075 10.5702H100.042C100.333 10.5903 100.565 10.8199 100.591 11.1088L100.592 11.1323V26.8661C100.684 29.0846 100.002 31.2662 98.6632 33.0377C97.1365 34.8956 94.817 35.8364 91.7696 35.8364C87.533 35.8364 84.1897 33.156 83.6394 29.3275C83.6121 29.0512 83.7805 28.7942 84.0422 28.7075L84.0655 28.7003L86.8347 28.0494C86.8492 28.0462 86.8637 28.0435 86.8783 28.0413C87.1823 27.9968 87.4647 28.2071 87.5092 28.511C87.7622 30.6585 89.608 32.2607 91.7696 32.2092C95.0443 32.2092 96.5849 30.5448 96.6154 27.0666L96.6158 26.9607V25.582C95.3883 26.9587 93.6132 27.7195 91.7696 27.6589C87.0596 27.6589 83.6454 24.0021 83.6454 18.9725C83.6023 16.7096 84.3991 14.5108 85.8821 12.8009C87.3883 11.1461 89.5322 10.2175 91.7696 10.2507ZM6.46851 29.3866L6.50363 29.3864L6.53888 29.3867C7.66947 29.3996 8.57977 30.3138 8.59206 31.4403L8.59215 31.4755C8.59215 31.4872 8.59201 31.499 8.59181 31.5107C8.57212 32.6641 7.62126 33.5833 6.46783 33.5637C5.3144 33.544 4.39531 32.5931 4.4148 31.4397C4.43408 30.3098 5.34692 29.4047 6.46851 29.3866ZM140.832 10.0317L140.977 10.0328C146.041 10.1027 149.178 13.6272 149.178 19.2683C149.178 19.5668 149.162 19.8651 149.13 20.1619C149.105 20.4348 148.881 20.6453 148.61 20.6582L148.586 20.6589H136.551C136.625 23.1867 138.714 25.1867 141.243 25.15C143.203 25.2732 144.989 24.0268 145.551 22.1442C145.653 21.8739 145.945 21.7285 146.22 21.806L146.243 21.8128L148.645 22.6589C148.778 22.7016 148.886 22.7957 148.948 22.9194L148.959 22.943C149.025 23.0733 149.036 23.2247 148.989 23.3631C147.873 26.6668 144.729 28.8528 141.243 28.7477C138.958 28.7704 136.759 27.8776 135.137 26.2684C133.366 24.4055 132.421 21.9077 132.515 19.3394C132.515 13.5693 136.662 10.1016 140.712 10.0328L140.832 10.0317ZM72.7282 10.0318H72.7341C77.888 10.0318 81.0892 13.5702 81.0892 19.2683C81.0888 19.5668 81.073 19.8651 81.0418 20.1619C81.0179 20.4363 80.7932 20.6482 80.5203 20.6585L80.4974 20.6589H68.462C68.5361 23.1937 70.6366 25.1966 73.172 25.1501C75.1333 25.2754 76.9206 24.0282 77.4797 22.1442C77.5799 21.8717 77.8735 21.7253 78.1496 21.8058L78.172 21.8128L80.5743 22.6589C80.7148 22.7043 80.829 22.8077 80.888 22.943C80.9442 23.0774 80.9442 23.2287 80.888 23.3631C79.773 26.6647 76.6317 28.8502 73.1483 28.7477C70.8592 28.7736 68.6553 27.8806 67.0299 26.2684C65.2618 24.404 64.3172 21.9073 64.4087 19.3394C64.4087 13.511 68.6395 10.0318 72.7282 10.0318ZM54.5034 10.0258C56.8169 10.0258 58.6868 10.5879 60.0714 11.6944C61.0076 12.4405 61.7015 13.4474 62.0655 14.5879L62.0666 14.5925C62.1141 14.7891 61.9985 14.9872 61.8068 15.0442L61.7874 15.0494L58.9175 15.9962C58.7902 16.0467 58.6484 16.0467 58.5211 15.9962C58.4124 15.9455 58.3306 15.8507 58.2962 15.7359L58.281 15.6794C58.0195 14.745 57.165 13.2447 54.5034 13.2447C52.6099 13.2447 51.4738 14.3335 51.4738 15.3868L51.4742 15.4285C51.4885 16.1133 51.8608 16.973 53.4939 17.2999L53.5448 17.3098L56.7046 17.9015C60.1959 18.6045 62.2083 20.5021 62.2482 23.1466L62.2488 23.227L62.2371 23.1798L62.2363 23.2599C62.1855 25.9109 59.6214 28.7003 54.8998 28.7003C49.3673 28.7003 47.1957 25.5702 46.7933 23.7241C46.767 23.5309 46.8848 23.3485 47.0691 23.2917L47.0891 23.2861L50.0477 22.3631C50.1006 22.3544 50.1546 22.3544 50.2075 22.3631C50.2827 22.3617 50.3571 22.3777 50.4249 22.4095L50.4501 22.4222C50.5587 22.4743 50.6389 22.5718 50.669 22.6884C51.0418 24.4637 52.6454 25.5229 54.9531 25.5229C57.101 25.5229 58.0773 24.3986 58.0773 23.3808C58.0773 22.3743 57.2265 21.6281 55.7596 21.3199L55.7105 21.3098L52.3909 20.6648C49.2962 20.079 47.3673 18.1559 47.3673 15.653C47.3673 12.6056 50.6394 10.0258 54.5034 10.0258ZM173.841 5.09682H176.427C176.732 5.11513 176.971 5.36259 176.983 5.66567L176.983 5.6885V10.5465H180.095C180.398 10.5678 180.634 10.8141 180.645 11.115L180.646 11.1382V13.7181L180.646 13.7405C180.637 14.0298 180.407 14.2647 180.118 14.2795L180.095 14.2802H176.983V22.9133C176.983 24.3453 177.55 24.9371 179.012 24.9371C179.308 24.9319 179.604 24.9095 179.897 24.8698L180.006 24.8541C180.168 24.8268 180.332 24.8724 180.456 24.9785C180.568 25.0821 180.635 25.2246 180.645 25.376L180.646 25.4045V27.8364C180.648 28.0843 180.486 28.3038 180.249 28.3749C179.568 28.5657 178.864 28.6614 178.156 28.6598L178.06 28.6589C174.972 28.6589 173.045 26.6929 173.007 23.5131L173.007 23.4163V14.3157H170.314C170.021 14.2985 169.785 14.0681 169.76 13.7773L169.758 13.7536V11.1618C169.757 10.8561 169.99 10.6016 170.291 10.572L170.314 10.5702L171.038 10.5701L171.115 10.5687C171.96 10.5444 173.258 10.202 173.284 8.31592L173.285 8.2565V5.6885C173.284 5.38275 173.517 5.12828 173.818 5.09862L173.841 5.09682ZM123.583 10.0291L123.651 10.0318H123.645C126.691 10.0318 129.767 12.1543 129.828 16.7898L129.829 16.931V27.8897C129.815 28.1837 129.587 28.4212 129.296 28.45L129.273 28.4518H126.438C126.145 28.4345 125.91 28.2042 125.884 27.9134L125.882 27.8897V17.2861L125.881 17.2045C125.864 15.8534 125.405 13.6825 122.622 13.6825C120.565 13.6825 119.1 15.2832 119.071 17.6118L119.071 17.6826V27.8897C119.057 28.1837 118.83 28.4212 118.539 28.45L118.515 28.4518H115.646C115.351 28.4345 115.116 28.2042 115.091 27.9134L115.09 27.8897V17.2861L115.089 17.2045C115.072 15.8534 114.613 13.6825 111.829 13.6825C109.691 13.6825 108.243 15.2716 108.214 17.6459L108.214 17.7181V27.8897C108.199 28.1837 107.971 28.4212 107.681 28.45L107.657 28.4518H104.823C104.531 28.4317 104.299 28.2021 104.274 27.9132L104.273 27.8897V11.0968C104.287 10.8049 104.511 10.5681 104.799 10.5367L104.823 10.5346H107.551C107.844 10.5519 108.08 10.7823 108.105 11.0731L108.107 11.0968V12.1086C109.334 10.7633 111.079 10.0074 112.899 10.0318C115.008 9.96995 116.976 11.0849 118.006 12.9251C119.233 11.0507 121.348 9.95407 123.583 10.0291ZM166.024 12.1204C167.11 13.551 167.67 15.3104 167.612 17.1038L167.609 17.1796V27.8897C167.596 28.1816 167.371 28.4184 167.083 28.4498L167.059 28.4518H164.19C163.896 28.4345 163.661 28.2042 163.635 27.9134L163.633 27.8897V17.7536C163.633 15.1027 162.385 13.7536 160.018 13.7536C158.973 13.7198 157.973 14.1855 157.326 15.008C156.699 15.9108 156.376 16.9883 156.401 18.0855L156.403 18.15V27.8897C156.388 28.1837 156.161 28.4212 155.87 28.45L155.847 28.4518H152.983C152.689 28.4345 152.453 28.2042 152.428 27.9134L152.427 27.8897V11.0849C152.44 10.7909 152.669 10.5534 152.959 10.5246L152.983 10.5228H155.782C156.073 10.5429 156.305 10.7726 156.33 11.0614L156.332 11.0849V12.2684C157.533 10.8138 159.334 9.98964 161.22 10.0318C163.057 9.95321 164.829 10.7234 166.024 12.1204ZM1.10095 21.1501H21.4738C21.8482 21.1532 22.1506 21.453 22.16 21.8245L22.1602 21.8483V24.3987C22.1634 24.773 21.8687 25.0805 21.4975 25.0962L21.4737 25.0968H1.10095C0.726505 25.0936 0.424162 24.7938 0.414551 24.4224V24.3986V21.8482V21.8244C0.423961 21.4611 0.713594 21.1663 1.07664 21.1507L1.10095 21.1501ZM92.2608 13.7891C89.4679 13.7891 87.6927 15.7773 87.6927 18.9725C87.6927 22.1678 89.4442 24.15 92.2608 24.15C94.9471 24.15 96.7578 22.0672 96.7578 18.9725C96.7578 15.8719 94.9471 13.7891 92.2608 13.7891ZM68.5879 17.2463L68.5803 17.3098H77.0004C76.7954 15.0604 75.2101 13.6576 72.8359 13.6298L72.7637 13.6294C70.6716 13.5953 68.8901 15.1255 68.5963 17.1838L68.5879 17.2463ZM136.7 17.2463L136.693 17.3098H145.113C144.908 15.0604 143.323 13.6576 140.948 13.6298L140.876 13.6294C138.784 13.5953 137.002 15.1255 136.709 17.1838L136.7 17.2463ZM24.024 1.68849C24.2004 1.75212 24.3434 1.88446 24.4205 2.05537C24.4912 2.2279 24.4912 2.42134 24.4205 2.59377L23.5329 4.96072C23.4099 5.31167 23.0262 5.49689 22.6749 5.3749C18.0251 3.75228 12.8655 4.67421 9.06546 7.8068C6.6972 9.7891 5.01562 12.4689 4.26073 15.4636C4.18259 15.766 3.91029 15.9775 3.59801 15.9785H3.44415L1.00626 15.3927C0.824494 15.3499 0.668402 15.2343 0.574321 15.0731H0.562447C0.463799 14.9119 0.435991 14.7171 0.485619 14.5347C1.45373 10.7012 3.61993 7.27672 6.66899 4.75946C11.5174 0.767973 18.1004 -0.396927 24.024 1.68849ZM15.0004 11.9134H35.3731C35.7383 11.9164 36.0367 12.202 36.0585 12.5637L36.0596 12.5879V15.1382C36.0627 15.5127 35.7682 15.8202 35.3969 15.8359L35.3731 15.8365H15.0004C14.6284 15.8301 14.3295 15.5314 14.3201 15.1624L14.3198 15.1382V12.6115C14.3166 12.2395 14.6075 11.9332 14.9762 11.9142L15.0004 11.9134ZM29.1431 4.13223L29.1782 4.13195L29.2134 4.13226C30.344 4.14522 31.2543 5.05941 31.2666 6.18575L31.2667 6.22102C31.2667 6.23279 31.2666 6.24457 31.2664 6.25624C31.2468 7.40967 30.2958 8.32876 29.1424 8.30917C27.9889 8.28958 27.0699 7.33862 27.0894 6.1853C27.1086 5.0553 28.0216 4.15028 29.1431 4.13223Z" fill="#4FB58B"/>
</svg>
