<svg width="29" height="20" viewBox="0 0 29 20" fill="none" xmlns="http://www.w3.org/2000/svg">
<path fill-rule="evenodd" clip-rule="evenodd" d="M29 9.99998C29 10.2652 28.8946 10.5196 28.7071 10.7071C28.5196 10.8946 28.2652 11 28 11L4.414 11L10.708 17.292C10.8958 17.4798 11.0013 17.7344 11.0013 18C11.0013 18.2655 10.8958 18.5202 10.708 18.708C10.5202 18.8958 10.2656 19.0012 10 19.0012C9.73445 19.0012 9.47977 18.8958 9.292 18.708L1.292 10.708C1.19888 10.6151 1.12499 10.5047 1.07458 10.3832C1.02416 10.2618 0.998214 10.1315 0.998214 9.99998C0.998214 9.86845 1.02416 9.7382 1.07458 9.61671C1.12499 9.49522 1.19888 9.38487 1.292 9.29198L9.292 1.29198C9.47977 1.10421 9.73445 0.998717 10 0.998717C10.2656 0.998717 10.5202 1.10421 10.708 1.29198C10.8958 1.47975 11.0013 1.73443 11.0013 1.99998C11.0013 2.26553 10.8958 2.52021 10.708 2.70798L4.414 8.99998L28 8.99998C28.2652 8.99998 28.5196 9.10534 28.7071 9.29288C28.8946 9.48041 29 9.73476 29 9.99998Z" fill="#00C48C"/>
</svg>
